<?xml version="1.0" encoding="UTF-8" standalone="no"?>
<svg width="16px" height="16px" viewBox="0 0 16 16" version="1.1" xmlns="http://www.w3.org/2000/svg" xmlns:xlink="http://www.w3.org/1999/xlink" xmlns:sketch="http://www.bohemiancoding.com/sketch/ns">
    <!-- Generator: Sketch 3.2.2 (9983) - http://www.bohemiancoding.com/sketch -->
    <title>icon_notsent</title>
    <desc>Created with Sketch.</desc>
    <defs></defs>
    <g id="Page-1" stroke="none" stroke-width="1" fill="none" fill-rule="evenodd" sketch:type="MSPage">
        <g id="-icons" sketch:type="MSArtboardGroup" transform="translate(-1489.000000, -700.000000)" fill="#ED1C24">
            <g id="icon_notsent" sketch:type="MSLayerGroup" transform="translate(1489.000000, 700.000000)">
                <path d="M8,15.5 C3.864,15.5 0.5,12.136 0.5,8 C0.5,3.864 3.864,0.5 8,0.5 C12.136,0.5 15.5,3.864 15.5,8 C15.5,12.136 12.136,15.5 8,15.5 L8,15.5 Z M8,1.5 C4.416,1.5 1.5,4.416 1.5,8 C1.5,11.584 4.416,14.5 8,14.5 C11.584,14.5 14.5,11.584 14.5,8 C14.5,4.416 11.584,1.5 8,1.5 L8,1.5 Z" id="Fill-1" sketch:type="MSShapeGroup"></path>
                <path d="M7,10 L9,10 L9,12 L7,12 L7,10 Z" id="Fill-2" sketch:type="MSShapeGroup"></path>
                <path d="M7,4 L9,4 L9,9 L7,9 L7,4 Z" id="Fill-3" sketch:type="MSShapeGroup"></path>
            </g>
        </g>
    </g>
</svg>