<?xml version="1.0" encoding="UTF-8" standalone="no"?>
<svg width="21px" height="21px" viewBox="0 0 21 21" version="1.1" xmlns="http://www.w3.org/2000/svg" xmlns:xlink="http://www.w3.org/1999/xlink" xmlns:sketch="http://www.bohemiancoding.com/sketch/ns">
    <!-- Generator: Sketch 3.2.2 (9983) - http://www.bohemiancoding.com/sketch -->
    <title>icon-full-mode-off</title>
    <desc>Created with Sketch.</desc>
    <defs></defs>
    <g id="Page-1" stroke="none" stroke-width="1" fill="none" fill-rule="evenodd" sketch:type="MSPage">
        <g id="-icons" sketch:type="MSArtboardGroup" transform="translate(-1408.000000, -694.000000)" fill="#FFFFFF" opacity="0.5">
            <g id="icon-full-mode-off" sketch:type="MSLayerGroup" transform="translate(1408.000000, 694.000000)">
                <path d="M7.75285714,17.7857143 C6.55178571,17.7857143 5.39035714,17.3121429 4.56857143,16.4892857 C3.70821429,15.6321429 3.21428571,14.4878571 3.21428571,13.3510714 L3.21428571,6 L3.12535714,6 C2.29714286,6 1.49892857,6.32464286 0.935357143,6.88821429 C0.340714286,7.48071429 0,8.26392857 0,9.03535714 L0,17.9646429 C0,18.7360714 0.340714286,19.5192857 0.934285714,20.1096429 C1.49892857,20.6753571 2.29714286,21 3.12535714,21 L11.9646429,21 C12.7746429,21 13.5375,20.6839286 14.1096429,20.1107143 C14.6839286,19.5385714 15,18.7757143 15,17.9646429 L15,17.7857143 L7.75285714,17.7857143" id="Fill-1" sketch:type="MSShapeGroup"></path>
                <path d="M20.3292857,0.671785714 C19.8814286,0.223928571 19.2942857,0 18.7082143,0 L8.39571429,0 C7.80964286,0 7.17107143,0.223928571 6.72428571,0.671785714 C6.27535714,1.11857143 6,1.70571429 6,2.29178571 L6,12.7082143 C6,13.2942857 6.27535714,13.8825 6.72428571,14.3282143 C7.17107143,14.7760714 7.80964286,15 8.39571429,15 L18.7082143,15 C19.2942857,15 19.8814286,14.7760714 20.3292857,14.3282143 C20.7760714,13.8825 21,13.2942857 21,12.7082143 L21,2.29178571 C21,1.70571429 20.7760714,1.11857143 20.3292857,0.671785714 L20.3292857,0.671785714 Z M10,4.77189568 L12.0760348,4.77189568 L12.0760348,7.45620864 L16.5322434,3 L18,4.46775658 L13.5437914,8.92396523 L16.2281043,8.92396523 L16.2281043,11 L10,11 L10,4.77189568 L10,4.77189568 Z" id="Fill-2" sketch:type="MSShapeGroup"></path>
            </g>
        </g>
    </g>
</svg>