<?xml version="1.0" encoding="UTF-8" standalone="no"?>
<svg width="17px" height="17px" viewBox="0 0 17 17" version="1.1" xmlns="http://www.w3.org/2000/svg" xmlns:xlink="http://www.w3.org/1999/xlink" xmlns:sketch="http://www.bohemiancoding.com/sketch/ns">
    <!-- Generator: Sketch 3.2.2 (9983) - http://www.bohemiancoding.com/sketch -->
    <title>icon-message</title>
    <desc>Created with Sketch.</desc>
    <defs></defs>
    <g id="Page-1" stroke="none" stroke-width="1" fill="none" fill-rule="evenodd" sketch:type="MSPage">
        <g id="-icons" sketch:type="MSArtboardGroup" transform="translate(-1449.000000, -698.000000)" fill="#BEBEBE">
            <g id="icon-message" sketch:type="MSLayerGroup" transform="translate(1449.000000, 698.000000)">
                <path d="M9.726,0 L2,0 C1.488,0 0.976,0.195 0.586,0.586 C0.195,0.976 0,1.488 0,2 L0,11 C0,11.512 0.195,12.024 0.586,12.414 C0.976,12.805 1.488,13 2,13 L10.096,13 L14.019,17 L15,17 L15,13 C15.512,13 16.024,12.805 16.414,12.414 C16.805,12.024 17,11.512 17,11 L17,2 C17,1.488 16.805,0.976 16.414,0.586 C16.024,0.195 15.512,0 15,0 L9.726,0" sketch:type="MSShapeGroup"></path>
            </g>
        </g>
    </g>
</svg>